<?xml version="1.0" encoding="UTF-8"?><svg id="Camada_2" xmlns="http://www.w3.org/2000/svg" viewBox="0 0 483.86 145.69"><defs><style>.cls-1{fill:#fff;}</style></defs><g id="Camada_1-2"><g><path class="cls-1" d="M220.28,40.11c1.82,5.12,2.75,7.73,2.79,7.83,.84,2.42,1.74,5,2.68,7.73,2.52,7.12,4.22,11.83,5.1,14.14,.25,.7,.21,1.38-.11,2.05s-.81,1.12-1.47,1.37c-.7,.25-1.38,.21-2.02-.1-.65-.32-1.09-.81-1.34-1.47-1.05-2.8-2.75-7.55-5.1-14.25-.21-.63-1.1-3.19-2.68-7.68-.11-.32-.29-.84-.55-1.58s-.46-1.28-.6-1.63c-.53,1.72-1.38,4.47-2.58,8.25-2.77,8.31-4.68,13.79-5.73,16.46-.07,.53-.27,.99-.61,1.39s-.76,.67-1.29,.82c-.67,.21-1.32,.14-1.97-.21s-1.08-.88-1.29-1.58c-.35-1.58-1.98-7.36-4.89-17.35,0-.07-.04-.21-.11-.42-.07-.21-.11-.35-.11-.42-2.21-7.96-3.56-12.83-4.05-14.62-.17-.7-.09-1.37,.26-2,.35-.63,.88-1.03,1.58-1.21,.7-.18,1.37-.09,2,.26s1.03,.88,1.21,1.58c.35,1.3,.97,3.55,1.87,6.76,.89,3.21,1.62,5.81,2.18,7.81,.04,.11,.08,.25,.13,.42,.05,.17,.1,.32,.13,.42,.21,.74,.64,2.25,1.29,4.55,.65,2.3,1.09,3.9,1.34,4.81,.21-.6,1.23-3.63,3.05-9.1,2.17-6.73,3.77-11.88,4.79-15.46,.21-.91,.81-1.53,1.79-1.84,.7-.25,1.38-.2,2.02,.13s1.1,.83,1.34,1.5c.42,1.12,.74,2,.95,2.63Zm13.04,7.47c1.02-4.14,1.75-7.36,2.21-9.68,.17-.7,.56-1.25,1.16-1.66,.6-.4,1.25-.53,1.95-.39,.7,.14,1.25,.51,1.66,1.1,.4,.6,.53,1.24,.39,1.95-.74,3.65-1.49,6.96-2.26,9.94-.6,2.45-1.54,6.2-2.84,11.25-.18,.7-.58,1.24-1.21,1.6-.63,.37-1.3,.46-2,.29-.7-.18-1.24-.58-1.6-1.21s-.46-1.3-.29-2c.77-2.84,1.72-6.57,2.84-11.2Z"/><path class="cls-1" d="M263.77,51.68c1.79,.04,3.89,.09,6.31,.16,.84,0,2.05,0,3.63,.03s2.75,.03,3.52,.03,1.36,.25,1.87,.76c.51,.51,.76,1.13,.76,1.87s-.25,1.31-.76,1.84c-.51,.53-1.13,.79-1.87,.79s-1.95,0-3.55-.03-2.83-.03-3.71-.03c-2.42-.07-4.52-.12-6.31-.16-.18,0-.77,0-1.79-.03s-1.82-.03-2.42-.03c-.07,1.4-.14,3.63-.21,6.68v1l-.05,.53v.47c0,.39,0,.89-.03,1.53-.02,.63-.03,1.07-.03,1.31h2.31c2.7-.04,4.49-.05,5.36-.05,2.31-.04,5.94-.02,10.88,.05,.74,.04,1.36,.32,1.87,.84,.51,.53,.75,1.16,.71,1.89-.04,.7-.32,1.31-.84,1.81-.53,.51-1.14,.75-1.84,.71-4.87-.07-8.45-.09-10.73-.05-.88,0-2.66,.02-5.36,.05h-4.31c-.32,.11-.6,.14-.84,.11-.74,0-1.36-.26-1.87-.79s-.75-1.16-.71-1.89v-.21c.07-1.79,.12-3.59,.16-5.42v-.53c.04-.25,.05-.4,.05-.47v-1.05c.07-3.26,.18-6.38,.32-9.36,.03-.7,.31-1.3,.81-1.79,.51-.49,1.11-.74,1.81-.74h.1c1.89,.1,4.14,.16,6.73,.16Zm2.16-15.72c.91,0,2-.02,3.26-.05,2.59-.04,5.45-.05,8.57-.05,.74,0,1.36,.25,1.87,.76s.76,1.13,.76,1.87-.25,1.36-.76,1.87c-.51,.51-1.13,.76-1.87,.76-3.08,0-5.92,.02-8.52,.05-1.26,.03-2.35,.05-3.26,.05-3.29,.04-6.27,.04-8.94,0-.74,0-1.36-.26-1.87-.79-.51-.53-.75-1.16-.71-1.89,0-.7,.26-1.31,.79-1.81,.53-.51,1.14-.76,1.84-.76,2.63,.04,5.57,.04,8.83,0Z"/><path class="cls-1" d="M320.82,69.5c.42,.56,.57,1.21,.45,1.95-.12,.74-.46,1.31-1.03,1.73-.56,.42-1.21,.57-1.95,.45s-1.31-.46-1.74-1.03c-6.2-8.55-12.22-17.09-18.04-25.61,0,5.61-.04,10.03-.11,13.25,0,1.51-.02,2.72-.05,3.63l-.05,3.73c0,.49,0,1.13-.03,1.92-.02,.79-.03,1.34-.03,1.66,0,.74-.26,1.36-.79,1.87-.53,.51-1.16,.75-1.89,.71-.7,0-1.31-.26-1.81-.79-.51-.53-.76-1.14-.76-1.84,0-.35,0-.91,.03-1.68,.02-.77,.03-1.4,.03-1.89,.04-1.93,.05-3.17,.05-3.73,.04-.95,.05-2.17,.05-3.68,.11-8.83,.11-16,0-21.51,0-.74,.25-1.36,.76-1.87,.51-.51,1.11-.78,1.81-.82,.42,0,.81,.09,1.16,.26,.53,.14,.98,.47,1.37,1,8.06,11.99,15.58,22.75,22.56,32.29Zm2.63-24.34v1.84c0,3.82,.05,7.73,.16,11.73,0,.74-.25,1.37-.76,1.89-.51,.53-1.11,.79-1.81,.79-.74,.04-1.37-.2-1.89-.71-.53-.51-.79-1.11-.79-1.81-.11-4.1-.16-8.06-.16-11.88v-8.57c-.04-.7,.21-1.31,.74-1.84,.53-.53,1.14-.79,1.84-.79,.74,0,1.36,.25,1.87,.76s.78,1.13,.82,1.87v6.73Z"/><path class="cls-1" d="M343.32,35.85c.14,0,.47,0,1-.03,.53-.02,.84-.03,.95-.03,.25,0,.55,0,.92-.03s.64-.03,.81-.03h3.16c2.1,.04,3.96,.28,5.57,.74,1.19,.39,2.23,.77,3.1,1.16,2.91,1.37,5.17,3.7,6.78,6.99,1.4,2.95,2.19,6.17,2.37,9.68,.17,3.58-.3,6.83-1.42,9.78-1.23,3.37-3.1,5.78-5.63,7.26-2.88,1.61-6.75,2.51-11.62,2.68-2.31,.07-4.77,.04-7.36-.11-.04,0-.09,0-.16-.03-.07-.02-.14-.03-.21-.03h-.32c-.32,0-.53-.02-.63-.05-.56,0-.96-.02-1.21-.05-.7,0-1.31-.25-1.84-.76-.53-.51-.79-1.13-.79-1.87,0-3.44,0-7.1,.03-10.99,.02-3.89,.03-7.24,.03-10.04,.04-.74,.31-1.36,.82-1.87,.51-.51,1.13-.76,1.87-.76s1.31,.25,1.84,.76c.53,.51,.77,1.13,.74,1.87,0,2.63,0,5.71-.03,9.25-.02,3.54-.03,6.64-.03,9.31h.16c2.49,.14,4.8,.17,6.94,.11,4-.11,7.05-.77,9.15-2,1.44-.81,2.57-2.34,3.39-4.6,.82-2.26,1.17-4.79,1.02-7.6-.1-2.77-.72-5.31-1.84-7.62-1.09-2.21-2.51-3.72-4.26-4.52-.67-.32-1.44-.6-2.31-.84-1.16-.35-2.59-.54-4.31-.58-.46,0-2.63,.04-6.52,.11-2.03,.07-3.38,.1-4.05,.1-.7,0-1.31-.25-1.84-.76-.53-.51-.81-1.11-.84-1.81,0-.74,.25-1.36,.76-1.87s1.13-.78,1.87-.82c.6,0,1.91-.04,3.94-.11Z"/><path class="cls-1" d="M386.22,55.36v3.26c0,.49,0,1.18-.03,2.08-.02,.89-.03,1.55-.03,1.97,2.21,0,4.14,.02,5.78,.05h7.26c.74,0,1.36,.25,1.87,.76,.51,.51,.78,1.13,.81,1.87,0,.7-.25,1.31-.76,1.84-.51,.53-1.13,.79-1.87,.79h-7.36c-1.65-.04-3.58-.05-5.78-.05,0,1.44-.02,2.52-.05,3.26,0,.74-.26,1.36-.79,1.87-.53,.51-1.16,.75-1.89,.71-.7,0-1.31-.26-1.81-.79-.51-.53-.76-1.14-.76-1.84,.04-1.05,.09-5.24,.16-12.57v-3.21c0-4.17,.04-9.8,.11-16.88,.04-.7,.32-1.31,.84-1.81,.53-.51,1.14-.76,1.84-.76,.74,.04,1.36,.31,1.87,.82,.51,.51,.75,1.13,.71,1.87-.07,7.01-.1,12.6-.1,16.77Zm24.71-2v2.47c-.07,7.89-.12,12.99-.16,15.3,0,.74-.26,1.36-.79,1.87-.53,.51-1.14,.75-1.84,.71-.74,0-1.36-.26-1.87-.79-.51-.53-.76-1.14-.76-1.84,.04-2.31,.09-7.41,.16-15.3v-2.42c.07-5.54,.16-10.55,.26-15.04,0-.74,.26-1.36,.79-1.87,.53-.51,1.16-.75,1.89-.71,.7,.04,1.31,.31,1.81,.81,.51,.51,.76,1.13,.76,1.87-.1,4.42-.19,9.39-.26,14.93Z"/><path class="cls-1" d="M434.18,51.68c1.79,.04,3.89,.09,6.31,.16,.84,0,2.05,0,3.63,.03s2.75,.03,3.52,.03,1.36,.25,1.87,.76c.51,.51,.76,1.13,.76,1.87s-.25,1.31-.76,1.84c-.51,.53-1.13,.79-1.87,.79s-1.95,0-3.55-.03-2.83-.03-3.71-.03c-2.42-.07-4.52-.12-6.31-.16-.18,0-.77,0-1.79-.03s-1.82-.03-2.42-.03c-.07,1.4-.14,3.63-.21,6.68v1l-.05,.53v.47c0,.39,0,.89-.03,1.53-.02,.63-.03,1.07-.03,1.31h2.31c2.7-.04,4.49-.05,5.36-.05,2.31-.04,5.94-.02,10.88,.05,.74,.04,1.36,.32,1.87,.84,.51,.53,.75,1.16,.71,1.89-.04,.7-.32,1.31-.84,1.81-.53,.51-1.14,.75-1.84,.71-4.87-.07-8.45-.09-10.73-.05-.88,0-2.66,.02-5.36,.05h-4.31c-.32,.11-.6,.14-.84,.11-.74,0-1.36-.26-1.87-.79-.51-.53-.75-1.16-.71-1.89v-.21c.07-1.79,.12-3.59,.16-5.42v-.53c.04-.25,.05-.4,.05-.47v-1.05c.07-3.26,.17-6.38,.32-9.36,.03-.7,.31-1.3,.81-1.79,.51-.49,1.11-.74,1.81-.74h.1c1.89,.1,4.14,.16,6.73,.16Zm2.16-15.72c.91,0,2-.02,3.26-.05,2.59-.04,5.45-.05,8.57-.05,.74,0,1.36,.25,1.87,.76s.76,1.13,.76,1.87-.25,1.36-.76,1.87c-.51,.51-1.13,.76-1.87,.76-3.08,0-5.92,.02-8.52,.05-1.26,.03-2.35,.05-3.26,.05-3.29,.04-6.27,.04-8.94,0-.74,0-1.36-.26-1.87-.79-.51-.53-.75-1.16-.71-1.89,0-.7,.26-1.31,.79-1.81,.53-.51,1.14-.76,1.84-.76,2.63,.04,5.57,.04,8.83,0Z"/><path class="cls-1" d="M468.93,52.15v2.73c0,1.3-.02,2.21-.05,2.73,0,1.44,0,3.34-.03,5.71s-.03,4.08-.03,5.13c.18,0,.42,0,.74-.03,.32-.02,.54-.03,.68-.03h10.99c.74,0,1.36,.26,1.87,.79,.51,.53,.76,1.14,.76,1.84,0,.74-.25,1.36-.76,1.87s-1.13,.76-1.87,.76h-10.94c-.95,.04-2.28,.05-4,.05h-.11c-.7,.04-1.31-.2-1.84-.71-.53-.51-.81-1.13-.84-1.87,0-.25,.02-.44,.05-.58,0-1.3,0-3.35,.03-6.15,.02-2.8,.03-5.07,.03-6.78,.04-.56,.05-1.49,.05-2.79v-2.73c.07-7.71,.1-12.27,.1-13.67,0-.74,.26-1.36,.79-1.87,.53-.51,1.16-.76,1.89-.76s1.31,.26,1.81,.79c.51,.53,.76,1.14,.76,1.84,0,1.44-.04,6.01-.11,13.72Z"/></g><g><path class="cls-1" d="M198.56,100.33c0-.69,.56-1.31,1.34-1.31,.41,0,.84,.22,1.06,.59,4.24,5.61,9.6,12.78,13.97,18.55v-17.83c0-.69,.62-1.31,1.34-1.31,.78,0,1.31,.62,1.31,1.31v21.82c0,.69-.53,1.31-1.31,1.31-.47,0-.84-.25-1.09-.59-4.24-5.61-9.57-12.78-13.97-18.58v17.86c0,.69-.62,1.31-1.31,1.31-.78,0-1.34-.62-1.34-1.31v-21.82Z"/><path class="cls-1" d="M240.46,119.84c-2.15-2.15-3.52-5.24-3.52-8.6s1.34-6.42,3.52-8.64c2.28-2.21,5.3-3.58,8.7-3.58s6.36,1.34,8.57,3.55c2.28,2.25,3.62,5.27,3.62,8.67s-1.34,6.42-3.62,8.6h.03c-2.21,2.24-5.24,3.62-8.6,3.62s-6.45-1.37-8.7-3.62Zm1.93-15.4c-1.71,1.78-2.77,4.15-2.77,6.76s1.03,4.99,2.77,6.73c1.78,1.78,4.15,2.81,6.76,2.81s5.02-1.03,6.73-2.81c1.75-1.71,2.81-4.12,2.81-6.73s-1.06-4.99-2.81-6.76c-1.75-1.75-4.12-2.77-6.73-2.77s-4.99,1.06-6.76,2.77Z"/><path class="cls-1" d="M291.49,99.05l.03-.03c1.65,0,3.21,.31,4.61,.94,1.5,.59,2.93,1.53,3.99,2.62,.59,.56,.53,1.43-.03,1.9-.53,.5-1.34,.53-1.84-.03-.9-.9-1.96-1.59-3.12-2.06-1.12-.5-2.37-.75-3.68-.75-2.62,0-4.99,1.03-6.73,2.77-1.71,1.78-2.77,4.15-2.77,6.76s1.03,4.99,2.77,6.73c1.71,1.78,4.12,2.81,6.73,2.81s5.08-1.03,6.8-2.81c1.5-1.43,2.46-3.34,2.74-5.42h-9.51c-.69,0-1.25-.62-1.25-1.31s.56-1.31,1.25-1.31l11.13,.06,.16,.03,.47,.06,.03,.16c.12,.03,.28,.03,.31,.03l.06,.56,.06,.12,.06,.09v.28c0,3.43-1.37,6.45-3.55,8.6-2.21,2.24-5.24,3.62-8.67,3.62s-6.39-1.37-8.63-3.62h.03c-2.25-2.18-3.58-5.27-3.58-8.6s1.31-6.42,3.55-8.67c2.21-2.18,5.24-3.52,8.57-3.55Z"/><path class="cls-1" d="M333.35,120.81l.09-.03c1.81,0,3.49-.75,4.74-1.96,1.22-1.25,1.96-2.96,1.96-4.77v-13.72c0-.69,.65-1.31,1.34-1.31s1.31,.62,1.31,1.31v13.72c0,2.56-1,4.92-2.74,6.67-1.71,1.68-4.02,2.74-6.61,2.74s-4.99-1.09-6.64-2.74c-1.75-1.75-2.74-4.02-2.74-6.67v-13.69c0-.69,.56-1.31,1.34-1.31,.69,0,1.25,.62,1.25,1.31v13.69c0,1.84,.75,3.52,2.03,4.8,1.19,1.22,2.87,1.96,4.68,1.96Z"/><path class="cls-1" d="M363.59,122.15v-21.82c0-.69,.62-1.31,1.31-1.31h14.12c.69,0,1.25,.62,1.25,1.31s-.56,1.34-1.25,1.34h-12.81v19.14h12.72c.78,0,1.31,.56,1.31,1.34,0,.69-.53,1.31-1.31,1.31h-14.03c-.69,0-1.31-.62-1.31-1.31Zm4.58-9.6c-.69,0-1.31-.62-1.31-1.31s.62-1.31,1.31-1.31h5.77c.69,0,1.31,.62,1.31,1.31s-.62,1.31-1.31,1.31h-5.77Z"/><path class="cls-1" d="M400.84,100.33c0-.69,.56-1.31,1.34-1.31,.69,0,1.31,.62,1.31,1.31v21.82c0,.69-.62,1.31-1.31,1.31-.78,0-1.34-.62-1.34-1.31v-21.82Z"/><path class="cls-1" d="M426.47,122.15c-.03,.69-.69,1.28-1.34,1.28-.69,0-1.31-.62-1.31-1.31v-21.82c0-.69,.62-1.31,1.31-1.31h9.01c2.12,0,3.9,.84,5.27,2.18,1.28,1.31,2.15,3.15,2.15,5.21s-.87,3.96-2.15,5.24-2.84,2-4.58,2.12c-.09,.06-.25,.06-.34,.06h-2.18c2.96,2.43,5.8,4.86,8.76,7.26,.53,.44,.65,1.31,.22,1.9v-.03c-.5,.66-1.25,.75-1.9,.25l-11.69-9.6h.03c-.31-.22-.53-.66-.53-1.09,0-.78,.53-1.31,1.31-1.31h5.64c1.31,0,2.53-.5,3.37-1.37,.87-.87,1.4-2.09,1.4-3.4s-.53-2.46-1.4-3.34c-.87-.9-2.06-1.4-3.37-1.4h-7.67v20.48Z"/><path class="cls-1" d="M468.93,99.86c.25-.56,.78-.94,1.25-.94,.44,0,.94,.38,1.18,.94l8.79,21.73c.25,.65-.12,1.46-.75,1.71h.03c-.69,.34-1.46,0-1.71-.72v.03l-7.54-18.74-7.61,18.74v-.03c-.25,.72-1.03,1.06-1.71,.72h.03c-.66-.25-1-1-.75-1.68l8.79-21.76Z"/></g><g><path class="cls-1" d="M161.36,72.84c0,40.23-32.61,72.84-72.84,72.84-24.5,0-46.17-12.09-59.37-30.63-.42-.59-9.7,4.31-10.1,3.71-.79-1.18,13.8-14.15,13.08-15.37-.65-1.11-11.49,5.22-12.01,4.18-.92-1.83,12.54-14.55,11.75-16.45C31.03,89.1,.66,111.77,0,109.66c-.48-1.55,18.02-18.28,17.64-19.88-1.29-5.43-1.98-11.11-1.98-16.94C15.67,32.61,48.29,0,88.52,0c19.5,0,37.22,7.66,50.29,20.14,.66,.63,16.98-6.82,17.62-6.16,.64,.66-20.4,17.78-19.79,18.46,1.11,1.23,12.11-7.15,13.13-5.84,.47,.59-16.05,15.55-15.6,16.16,.51,.7,24.77-17.13,25.26-16.42,1.25,1.83-8.29,9.2-7.21,11.14,5.83,10.47,9.14,22.53,9.14,35.36Z"/><path d="M103.71,110.71h0c-4.25,0-8.14-2.4-10.04-6.21l-3.71-7.42-3.71,7.42c-1.9,3.8-5.79,6.21-10.04,6.21h0c-4.25,0-8.14-2.4-10.04-6.21l-26.07-52.14c-2.57-5.15,1.17-11.21,6.93-11.21h0c2.93,0,5.61,1.66,6.93,4.28l22.24,44.48,5.07-10.2-13.66-27.35c-2.57-5.15,1.17-11.2,6.93-11.2h.02c2.93,0,5.6,1.65,6.92,4.27l8.5,16.93,8.46-16.91c1.31-2.62,3.99-4.28,6.93-4.28h.04c5.76,0,9.5,6.06,6.92,11.21l-13.69,27.35,5.07,10.2,22.24-44.48c1.31-2.62,3.99-4.28,6.93-4.28h.05c5.76,0,9.5,6.06,6.93,11.21l-26.07,52.14c-1.9,3.8-5.79,6.21-10.04,6.21Z"/></g></g></svg>