<?xml version="1.0" encoding="UTF-8"?><svg id="Camada_2" xmlns="http://www.w3.org/2000/svg" viewBox="0 0 495.93 403.93"><defs><style>.cls-1{fill-rule:evenodd;}</style></defs><g id="Camada_1-2"><path class="cls-1" d="M54.47,0c-6.16,.04-11.12,5.04-11.12,11.2v26.77H11.2c-6.19,0-11.2,5.01-11.2,11.2V379.07H0c0,6.18,5.01,11.2,11.2,11.2H206.69l38.09,13.06c2.35,.81,4.91,.81,7.26,0l38.09-13.06h194.61c6.18,0,11.2-5.01,11.2-11.2V49.16h0c0-6.18-5.01-11.2-11.2-11.2h-31.25V11.2c0-3.74-1.87-7.24-4.98-9.32-3.11-2.07-7.06-2.46-10.52-1.03L248.42,79.6,58.84,.86C57.46,.28,55.97-.01,54.47,0h0Zm11.27,27.98L237.21,99.2V377.05l-171.47-58.79V27.98Zm365.35,0V318.26l-171.47,58.79V99.2L431.09,27.98ZM22.4,60.36h20.95V326.25h0c0,4.79,3.04,9.04,7.57,10.59l90.46,31.02H22.41V60.36h0Zm431.09,0h20.05V367.86h-118.08l90.46-31.02h0c4.53-1.55,7.57-5.81,7.57-10.59V60.36h0Z"/><path class="cls-1" d="M297.43,132.56c-1.38,.53-2.65,1.34-3.71,2.37s-1.93,2.26-2.52,3.62c-.59,1.36-.91,2.83-.93,4.31-.02,1.48,.25,2.96,.81,4.33,.55,1.37,1.38,2.63,2.41,3.68,1.04,1.05,2.29,1.9,3.65,2.47,1.36,.57,2.84,.87,4.32,.87,1.48,0,2.96-.29,4.32-.86l82.81-35.02c1.38-.53,2.65-1.34,3.71-2.37s1.93-2.26,2.52-3.62c.59-1.36,.91-2.83,.93-4.31,.02-1.48-.25-2.96-.81-4.33-.55-1.37-1.38-2.63-2.41-3.68-1.04-1.05-2.29-1.9-3.65-2.47-1.36-.57-2.84-.87-4.32-.87-1.48,0-2.96,.29-4.32,.86l-82.81,35.02Z"/><path class="cls-1" d="M297.43,203.57c-1.38,.53-2.65,1.34-3.71,2.37-1.07,1.02-1.93,2.26-2.52,3.62-.59,1.36-.91,2.83-.93,4.31-.02,1.48,.25,2.96,.81,4.33,.55,1.37,1.38,2.63,2.41,3.68,1.04,1.05,2.29,1.9,3.65,2.47,1.36,.57,2.84,.87,4.32,.87,1.48,0,2.96-.3,4.32-.86l82.81-35.02c1.38-.53,2.65-1.34,3.71-2.37,1.07-1.02,1.93-2.26,2.52-3.62,.59-1.36,.91-2.83,.93-4.31,.02-1.48-.25-2.96-.81-4.33-.55-1.37-1.38-2.63-2.41-3.68-1.04-1.05-2.29-1.9-3.65-2.47-1.36-.57-2.84-.87-4.32-.87-1.48,0-2.96,.29-4.32,.86l-82.81,35.02Z"/><path class="cls-1" d="M297.43,278.8c-1.38,.53-2.65,1.34-3.71,2.37-1.07,1.02-1.93,2.26-2.52,3.62-.59,1.36-.91,2.83-.93,4.31-.02,1.48,.25,2.96,.81,4.33,.55,1.37,1.38,2.63,2.41,3.68,1.04,1.05,2.29,1.9,3.65,2.47,1.36,.57,2.84,.87,4.32,.87,1.48,0,2.96-.3,4.32-.86l82.81-35.02c1.38-.53,2.65-1.34,3.71-2.37,1.07-1.02,1.93-2.26,2.52-3.62,.59-1.36,.91-2.83,.93-4.31,.02-1.48-.25-2.96-.81-4.33-.55-1.37-1.38-2.63-2.41-3.68-1.04-1.05-2.29-1.9-3.65-2.47-1.36-.57-2.84-.87-4.32-.87-1.48,0-2.96,.3-4.32,.86l-82.81,35.02Z"/><path class="cls-1" d="M196.7,132.56c1.38,.53,2.65,1.34,3.71,2.37s1.93,2.26,2.52,3.62c.59,1.36,.91,2.83,.93,4.31,.02,1.48-.25,2.96-.81,4.33-.55,1.37-1.38,2.63-2.41,3.68-1.04,1.05-2.29,1.9-3.65,2.47-1.36,.57-2.84,.87-4.32,.87-1.48,0-2.96-.29-4.32-.86l-82.8-35.03c-1.38-.53-2.65-1.34-3.71-2.37-1.07-1.02-1.93-2.26-2.52-3.62s-.91-2.83-.93-4.31c-.02-1.48,.25-2.96,.81-4.33,.55-1.37,1.38-2.63,2.41-3.68,1.04-1.05,2.29-1.9,3.65-2.47,1.36-.57,2.84-.87,4.32-.87,1.48,0,2.96,.29,4.32,.86l82.81,35.03Z"/><path class="cls-1" d="M196.7,203.57c1.38,.53,2.65,1.34,3.71,2.37,1.07,1.02,1.93,2.26,2.52,3.62,.59,1.36,.91,2.83,.93,4.31,.02,1.48-.25,2.96-.81,4.33-.55,1.37-1.38,2.63-2.41,3.68-1.04,1.05-2.29,1.9-3.65,2.47-1.36,.57-2.84,.87-4.32,.87-1.48,0-2.96-.3-4.32-.86l-82.81-35.02c-1.38-.53-2.65-1.34-3.71-2.37-1.07-1.02-1.93-2.26-2.52-3.62-.59-1.36-.91-2.83-.93-4.31-.02-1.48,.25-2.96,.81-4.33,.55-1.37,1.38-2.63,2.41-3.68,1.04-1.05,2.29-1.9,3.65-2.47,1.36-.57,2.84-.87,4.32-.87,1.48,0,2.96,.29,4.32,.86l82.81,35.02Z"/><path class="cls-1" d="M196.7,278.8c1.38,.53,2.65,1.34,3.71,2.37,1.07,1.02,1.93,2.26,2.52,3.62,.59,1.36,.91,2.83,.93,4.31,.02,1.48-.25,2.96-.81,4.33-.55,1.37-1.38,2.63-2.41,3.68-1.04,1.05-2.29,1.9-3.65,2.47-1.36,.57-2.84,.87-4.32,.87-1.48,0-2.96-.3-4.32-.86l-82.81-35.02c-1.38-.53-2.65-1.34-3.71-2.37-1.07-1.02-1.93-2.26-2.52-3.62-.59-1.36-.91-2.83-.93-4.31-.02-1.48,.25-2.96,.81-4.33,.55-1.37,1.38-2.63,2.41-3.68,1.04-1.05,2.29-1.9,3.65-2.47,1.36-.57,2.84-.87,4.32-.87,1.48,0,2.96,.3,4.32,.86l82.81,35.02Z"/></g></svg>