<?xml version="1.0" encoding="UTF-8"?><svg id="Camada_2" xmlns="http://www.w3.org/2000/svg" viewBox="0 0 396.66 490"><defs><style>.cls-1{fill-rule:evenodd;}</style></defs><g id="Camada_1-2"><g><path class="cls-1" d="M58.34,23.33c-19.33,0-35,15.67-35,35V431.67c0,19.33,15.67,35,35,35H338.34c19.33,0,35-15.67,35-35V173.13c0-10.21-4.46-19.92-12.22-26.57L227.18,31.76c-6.34-5.44-14.42-8.43-22.78-8.43H58.34ZM0,58.33C0,26.12,26.12,0,58.34,0H204.41c13.93,0,27.39,4.98,37.96,14.04l133.93,114.8c12.93,11.08,20.37,27.26,20.37,44.29V431.67c0,32.21-26.12,58.33-58.33,58.33H58.33c-32.21,0-58.33-26.12-58.33-58.33V58.33Z"/><path class="cls-1" d="M210.01,105V23.33h23.33V105c0,19.33,15.67,35,35,35h105v23.33h-105c-32.21,0-58.33-26.12-58.33-58.33Z"/><path class="cls-1" d="M291.67,420H105.01v-23.33h186.66v23.33Z"/><path class="cls-1" d="M210.01,338.33V198.33h-23.34v140h23.34Z"/><path class="cls-1" d="M190.09,346.59c4.55,4.55,11.95,4.55,16.5,0l70-70-16.5-16.5-61.75,61.75-61.75-61.75-16.5,16.5,70,70Z"/></g></g></svg>