<?xml version="1.0" encoding="UTF-8"?><svg id="Camada_2" xmlns="http://www.w3.org/2000/svg" viewBox="0 0 537.6 436.8"><defs><style>.cls-1{fill-rule:evenodd;}</style></defs><g id="Camada_1-2"><path class="cls-1" d="M359.09,78.4H48.47C21.7,78.4,0,100.1,0,126.88V388.33c0,13.89,5.84,26.42,15.21,35.26,.2,.3,.42,.58,.66,.86,1.11,1.3,2.45,2.3,3.91,2.96,8.03,5.91,17.95,9.4,28.7,9.4H489.13c26.77,0,48.47-21.7,48.47-48.47V126.88c0-5.49-.92-10.77-2.61-15.7v-.04c1.7-6.9,2.61-14.12,2.61-21.54,0-49.45-40.15-89.6-89.6-89.6-45.66,0-83.38,34.23-88.91,78.4h0Zm-151.39,198.08L45.26,414.2c1.05,.13,2.12,.2,3.21,.2H489.12c1.09,0,2.16-.07,3.21-.2l-162.44-137.72-13.98,11.85c-27.18,23.05-67.05,23.05-94.24,0l-13.97-11.85ZM23.27,120.12c-.57,2.15-.88,4.41-.88,6.75V388.32c0,4.73,1.25,9.15,3.45,12.97l164.54-139.5L23.27,120.11h0Zm491.92,28.73c-16.43,18.61-40.45,30.36-67.2,30.36-1.1,0-2.2-.02-3.29-.06l-97.5,82.66,164.54,139.5c2.2-3.82,3.45-8.24,3.45-12.97V148.84Zm-156.12-48.04H48.46c-3.8,0-7.41,.81-10.67,2.27l198.36,168.17c18.83,15.96,46.43,15.96,65.26,0l115.23-97.69c-30.66-11.46-53.38-39.25-57.57-72.75h0Zm77.71,22.4v11.2c0,6.18,5.02,11.2,11.2,11.2s11.2-5.02,11.2-11.2v-11.2c0-6.18-5.02-11.2-11.2-11.2s-11.2,5.02-11.2,11.2Zm0-72.8v39.2c0,6.18,5.02,11.2,11.2,11.2s11.2-5.02,11.2-11.2V50.4c0-6.18-5.02-11.2-11.2-11.2s-11.2,5.02-11.2,11.2Z"/></g></svg>