<?xml version="1.0" encoding="UTF-8"?><svg id="Camada_2" xmlns="http://www.w3.org/2000/svg" viewBox="0 0 409.6 408.82"><g id="Camada_1-2"><path d="M409.6,69.46c-1.7,3.16-4.01,5.51-7.94,4.47-4.07-1.09-4.93-4.31-4.9-8.11,.08-10.11,.06-20.23,.02-30.34-.06-13.98-8.73-22.68-22.75-22.68-112.8-.02-225.59-.02-338.39,0-14.05,0-22.81,8.67-22.81,22.61-.02,112.71-.03,225.42,0,338.13,0,13.71,8.8,22.45,22.57,22.45,112.93,.03,225.86,.03,338.79,0,14.08,0,22.59-8.82,22.59-23.24,.01-90.62,0-181.24,0-271.86,0-1.2,.04-2.4,0-3.59-.14-3.74,.66-6.98,4.77-8.17,4-1.16,6.2,1.28,8.04,4.28V379.26c-1.1,3.38-1.8,6.97-3.38,10.12-6.69,13.37-17.89,19.43-32.66,19.43-69.05-.01-138.1,0-207.15,0-43.46,0-86.91-.03-130.37,.02-9.58,0-18.09-2.63-25.25-9.16C4.74,394.14,1.83,386.99,0,379.26,0,262.69,0,146.11,0,29.54c2.33-5.38,4.02-11.17,7.14-16.06C12.24,5.49,20.63,2.05,29.6,0,146.4,0,263.2,0,380,0c5.39,2.32,11.19,4.01,16.08,7.12,8.02,5.09,11.47,13.46,13.52,22.42v39.92Z"/><path d="M224.86,169.84c3.55-2.76,6.39-5.34,9.59-7.39,26.85-17.2,72.25-19.53,100.2,13.67,8.7,10.34,13.38,22.23,13.37,35.85,0,42.31,0,84.62,0,126.93,0,6.25-2.18,8.43-8.4,8.43-16.66,.03-33.33,.02-49.99,0-7.11,0-9.07-1.91-9.08-8.94-.02-27.81,0-55.61-.01-83.42,0-7.03-1.03-13.79-5.41-19.62-7.09-9.44-19.37-13.12-31.15-9.36-11.63,3.72-19.03,14.19-19.07,27.51-.09,27.94-.03,55.88-.03,83.82,0,8.4-1.61,10-10.02,10-16.26,0-32.53,.01-48.79,0-6.56,0-8.62-2.03-8.62-8.57-.02-60-.02-120.01,0-180.01,0-6.47,2.14-8.56,8.67-8.57,16.66-.02,33.33-.02,49.99,0,6.67,0,8.73,2.14,8.76,8.91,.01,3.4,0,6.8,0,10.75Zm-12.82,164.57c0-1.83,0-3.28,0-4.72,0-25.41,.01-50.82,0-76.23,0-11.41,3.69-21.21,11.72-29.57,13.84-14.41,38.77-16.13,54.32-3.59,10.91,8.79,15.27,20.39,15.28,33.99,.02,25.15,0,50.29,0,75.44,0,1.53,0,3.06,0,4.57h41.66c.07-.77,.16-1.28,.16-1.8,0-40.58,.03-81.16-.03-121.73-.01-8.78-2.9-16.76-8.16-23.74-18-23.88-47.88-29.52-75.96-18.82-11.98,4.56-20.53,13.03-26.26,24.42-1.57,3.11-4.01,5.17-7.7,4.25-3.83-.95-5.08-3.89-5.04-7.61,.06-5.19,.01-10.38,.01-15.57,0-3.52,0-7.04,0-10.52h-41.51v171.25h41.51Z"/><path d="M116.04,163.27c-.77-.13-1.27-.29-1.78-.29-13.06-.01-26.11-.01-39.52-.01v171.31h41.49v-4.56c0-37.78,0-75.56,.01-113.34,0-1.59,.05-3.19,.3-4.76,.55-3.57,2.94-5.51,6.35-5.39,3.38,.12,5.69,2.12,6.03,5.76,.11,1.19,.14,2.39,.14,3.58,0,40.71,0,81.41,0,122.12,0,7.92-1.72,9.63-9.58,9.64-16.39,0-32.79,.01-49.18,0-6.56,0-8.71-2.1-8.71-8.53-.01-59.99-.01-119.99,0-179.98,0-6.44,2.19-8.64,8.65-8.65,16.79-.03,33.59-.03,50.38,0,6.22,.01,8.41,2.19,8.43,8.42,.04,8.65,.07,17.29-.13,25.94-.09,3.65-2.81,6.26-6.09,6.14-3.45-.13-5.75-1.94-6.32-5.5-.19-1.17-.27-2.38-.27-3.57-.03-4.79,0-9.58-.02-14.37,0-1.29-.12-2.59-.19-3.97Z"/><path d="M129,95.22c-.04,18.48-14.98,33.43-33.52,33.53-18.57,.1-33.93-15.16-33.86-33.66,.06-18.45,15.61-33.82,33.99-33.6,18.48,.22,33.44,15.32,33.4,33.73Zm-33.55,20.73c11.56-.05,20.73-9.26,20.72-20.79,0-11.46-9.29-20.81-20.73-20.87-11.53-.06-21.14,9.59-21.02,21.08,.12,11.41,9.54,20.63,21.02,20.58Z"/></g></svg>