<?xml version="1.0" encoding="UTF-8"?><svg id="Camada_2" xmlns="http://www.w3.org/2000/svg" viewBox="0 0 912 912"><g id="Camada_1-2"><path d="M456,912C205.33,912,0,708,0,456S205.33,0,456,0s456,205.33,456,456c0,82.67-22.67,162.67-64,233.33-5.33,9.33-17.33,12-28,6.67-9.33-5.33-12-17.33-6.67-28,38.67-64,58.67-137.33,58.67-212,0-229.33-186.67-416-416-416S40,226.67,40,456s186.67,416,416,416c80,0,150.67-22.67,192-62.67,36-34.67,52-70.67,49.33-105.33-8-74.67-101.33-133.33-112-140-1.33,0-1.33-1.33-1.33-1.33-1.33,0-4,1.33-6.67,4s-14.67,13.33-21.33,21.33c-10.67,10.67-17.33,17.33-21.33,20-8,6.67-20,14.67-33.33,12-5.33,0-9.33-2.67-14.67-5.33-8-4-44-30.67-106.67-101.33-72-81.33-73.33-129.33-73.33-142.67,1.33-14.67,12-24,20-30.67s18.67-13.33,28-18.67c8-4,16-9.33,22.67-16,2.67-2.67,5.33-4,5.33-5.33v-1.33c-2.67-5.33-40-90.67-52-114.67-4,0-9.33,0-12,1.33-76,30.67-86.67,78.67-88,97.34-1.33,13.33-6.67,136,100,265.33,118.67,144,213.33,161.33,230.67,162.67,4,0,25.33,2.67,52-6.67,10.67-4,21.33,1.33,25.33,12s-1.33,21.33-12,25.33c-26.67,9.33-53.33,10.67-69.33,9.33-29.33-2.67-133.33-25.33-257.33-177.33-116-141.33-110.67-278.67-109.33-293.33,1.33-21.33,13.33-90.67,112-129.33,13.33-5.33,45.33-8,57.33,8,5.33,6.67,58.67,128,58.67,129.33,2.67,6.67,2.67,13.33,2.67,20-1.33,10.67-8,20-20,30.67-9.33,6.67-18.67,13.33-28,20-8,5.33-16,9.33-24,16-2.67,2.67-4,4-5.33,4,0,8,5.33,45.33,62.67,109.33,60,68,90.67,89.33,94.67,92,1.33,0,2.67-1.33,5.33-4l17.33-17.33c13.33-13.33,21.33-21.33,26.67-25.33,13.33-9.33,24-13.33,34.67-12,6.67,1.33,13.33,2.67,18.67,6.67,20,12,121.33,78.67,132,170.67,5.33,49.33-14.67,96-61.33,138.67-48.01,46.66-128.01,74.66-218.68,74.66h0Z"/></g></svg>