<?xml version="1.0" encoding="UTF-8"?><svg id="Camada_2" xmlns="http://www.w3.org/2000/svg" viewBox="0 0 334.5 489.99"><defs><style>.cls-1{fill:#f3ff08;}</style></defs><g id="Camada_1-2"><path class="cls-1" d="M167.24,220.94c14.83,0,28.26-6.01,37.97-15.72,9.7-9.7,15.71-23.14,15.71-37.97s-6.01-28.26-15.72-37.96c-9.71-9.71-23.14-15.72-37.96-15.72s-28.26,6.01-37.96,15.72c-9.71,9.71-15.72,23.14-15.72,37.96s6.01,28.26,15.72,37.97c9.7,9.71,23.13,15.72,37.96,15.72Zm153.25-53.7c0-42.33-17.15-80.65-44.87-108.36-27.72-27.73-66.05-44.88-108.38-44.88S86.59,31.15,58.86,58.87C31.14,86.59,13.99,124.91,13.99,167.24s17.52,94.65,42.7,144.6c31.31,62.13,74.44,121.93,110.55,160.96,36.11-39.02,79.24-98.83,110.55-160.96,25.18-49.96,42.7-101.39,42.7-144.6h.01Zm14.01,0c0,45.76-18.47,99.99-45.02,152.43-33.14,65.44-78.96,128.2-117.16,168.15l-.25,.25c-1.38,1.32-3.2,1.96-4.98,1.92-1.79-.04-3.57-.77-4.89-2.16-38.2-39.95-84.02-102.71-117.17-168.14C18.47,267.25,0,213.01,0,167.24S18.73,79.27,49,49C79.27,18.73,121.09,0,167.25,0s87.98,18.73,118.25,49c30.26,30.26,49,72.09,49,118.25h0Zm-167.25,67.69c-18.68,0-35.61-7.59-47.86-19.84s-19.84-29.18-19.84-47.86,7.59-35.61,19.84-47.86,29.18-19.84,47.86-19.84,35.61,7.59,47.86,19.84,19.84,29.18,19.84,47.86-7.59,35.61-19.84,47.86-29.19,19.84-47.86,19.84h0Z"/></g></svg>