<?xml version="1.0" encoding="UTF-8"?><svg id="Camada_2" xmlns="http://www.w3.org/2000/svg" viewBox="0 0 489.54 490"><defs><style>.cls-1{fill:#f3ff08;}</style></defs><g id="Camada_1-2"><g><path class="cls-1" d="M236.25,283.5l-31.5-21c-21-14-42-29.75-59.5-47.25,26.25-33.25,45.5-70,59.5-110.25h22.75c10.5,0,17.5-7,17.5-17.5s-7-17.5-17.5-17.5h-87.5V17.5c0-10.5-7-17.5-17.5-17.5s-17.5,7-17.5,17.5v52.5H17.5c-10.5,0-17.5,7-17.5,17.5s7,17.5,17.5,17.5h22.75c14,40.25,33.25,77,59.5,110.25-17.5,17.5-36.75,35-59.5,47.25l-31.5,19.25c-8.75,5.25-10.5,15.75-5.25,24.5,1.75,5.25,8.75,8.75,14,8.75,3.5,0,7,0,8.75-3.5l31.5-19.25c22.75-14,45.5-31.5,63-50.75,19.25,19.25,40.25,36.75,63,50.75l31.5,19.25c5.25,3.5,8.75,3.5,12.25,3.5,5.25,0,12.25-3.5,14-8.75,5.25-7,3.5-19.25-5.25-22.75ZM77,105h91c-10.5,29.75-26.25,57.75-45.5,82.25-19.25-24.5-35-52.5-45.5-82.25Z"/><path class="cls-1" d="M488.25,465.5l-122.5-280c-1.75-7-8.75-10.5-15.75-10.5s-14,3.5-15.75,10.5l-122.5,280c-3.5,8.75,0,19.25,8.75,22.75s19.25,0,22.75-8.75l33.25-77h143.5l33.25,77c3.5,7,8.75,10.5,15.75,10.5,1.75,0,5.25,0,7-1.75,12.25-3.5,15.75-14,12.25-22.75Zm-196-98l57.75-131.25,57.75,131.25h-115.5Z"/></g></g></svg>